REM DIRINDEX 1\2,1\3,1\4,1\5
REM DIRNAME "folder01","folder02","folder03","folder04","folder05"
TITLE ""
FILE "P1Q_j_1735-1748.mp3" MP3
  TRACK 01 AUDIO
    TITLE "0:"
    INDEX 01 00:00:00
  TRACK 02 AUDIO
    TITLE "3:cjc173_0406"
    INDEX 01 00:00:08
  TRACK 03 AUDIO
    TITLE "0:"
    INDEX 01 00:01:41
  TRACK 04 AUDIO
    TITLE "4:cjc173_0407"
    INDEX 01 00:01:63
  TRACK 05 AUDIO
    TITLE "0:"
    INDEX 01 00:04:00
  TRACK 06 AUDIO
    TITLE "5:cjc173_0408"
    INDEX 01 00:04:20
  TRACK 07 AUDIO
    TITLE "0:"
    INDEX 01 00:10:15
  TRACK 08 AUDIO
    TITLE "3:cjc173_0409"
    INDEX 01 00:10:62
  TRACK 09 AUDIO
    TITLE "0:"
    INDEX 01 00:12:15
  TRACK 10 AUDIO
    TITLE "4:cjc173_0410"
    INDEX 01 00:12:37
  TRACK 11 AUDIO
    TITLE "0:"
    INDEX 01 00:16:27
  TRACK 12 AUDIO
    TITLE "5:cjc173_0411"
    INDEX 01 00:16:49
  TRACK 13 AUDIO
    TITLE "0:"
    INDEX 01 00:21:50
  TRACK 14 AUDIO
    TITLE "3:cjc173_0412"
    INDEX 01 00:22:22
  TRACK 15 AUDIO
    TITLE "0:"
    INDEX 01 00:23:51
  TRACK 16 AUDIO
    TITLE "4:cjc173_0413"
    INDEX 01 00:23:70
  TRACK 17 AUDIO
    TITLE "0:"
    INDEX 01 00:29:71
  TRACK 18 AUDIO
    TITLE "5:cjc173_0414"
    INDEX 01 00:30:15
  TRACK 19 AUDIO
    TITLE "0:"
    INDEX 01 00:34:58
  TRACK 20 AUDIO
    TITLE "3:cjc173_0415"
    INDEX 01 00:35:30
  TRACK 21 AUDIO
    TITLE "0:"
    INDEX 01 00:36:65
  TRACK 22 AUDIO
    TITLE "4:cjc173_0416"
    INDEX 01 00:37:11
  TRACK 23 AUDIO
    TITLE "0:"
    INDEX 01 00:40:47
  TRACK 24 AUDIO
    TITLE "5:cjc173_0417"
    INDEX 01 00:40:65
  TRACK 25 AUDIO
    TITLE "0:"
    INDEX 01 00:45:56
  TRACK 26 AUDIO
    TITLE "3:cjc173_0418"
    INDEX 01 00:46:26
  TRACK 27 AUDIO
    TITLE "0:"
    INDEX 01 00:47:49
  TRACK 28 AUDIO
    TITLE "4:cjc173_0419"
    INDEX 01 00:47:69
  TRACK 29 AUDIO
    TITLE "0:"
    INDEX 01 00:49:13
  TRACK 30 AUDIO
    TITLE "5:cjc173_0420"
    INDEX 01 00:49:30
  TRACK 31 AUDIO
    TITLE "0:"
    INDEX 01 00:53:07
  TRACK 32 AUDIO
    TITLE "3:cjc173_0421"
    INDEX 01 00:53:52
  TRACK 33 AUDIO
    TITLE "0:"
    INDEX 01 00:55:31
  TRACK 34 AUDIO
    TITLE "4:cjc173_0422"
    INDEX 01 00:55:52
  TRACK 35 AUDIO
    TITLE "0:"
    INDEX 01 00:59:48
  TRACK 36 AUDIO
    TITLE "5:cjc173_0423"
    INDEX 01 00:59:68
  TRACK 37 AUDIO
    TITLE "0:"
    INDEX 01 01:03:58
  TRACK 38 AUDIO
    TITLE "3:cjc173_0424"
    INDEX 01 01:04:28
  TRACK 39 AUDIO
    TITLE "0:"
    INDEX 01 01:06:05
  TRACK 40 AUDIO
    TITLE "4:cjc173_0425"
    INDEX 01 01:06:25
  TRACK 41 AUDIO
    TITLE "0:"
    INDEX 01 01:10:07
  TRACK 42 AUDIO
    TITLE "5:cjc173_0426"
    INDEX 01 01:10:27
  TRACK 43 AUDIO
    TITLE "0:"
    INDEX 01 01:14:62
  TRACK 44 AUDIO
    TITLE "3:cjc173_0427"
    INDEX 01 01:15:32
  TRACK 45 AUDIO
    TITLE "0:"
    INDEX 01 01:17:09
  TRACK 46 AUDIO
    TITLE "4:cjc173_0428"
    INDEX 01 01:17:31
  TRACK 47 AUDIO
    TITLE "0:"
    INDEX 01 01:19:29
  TRACK 48 AUDIO
    TITLE "5:cjc173_0429"
    INDEX 01 01:19:51
  TRACK 49 AUDIO
    TITLE "0:"
    INDEX 01 01:24:17
  TRACK 50 AUDIO
    TITLE "3:cjc173_0430"
    INDEX 01 01:24:66
  TRACK 51 AUDIO
    TITLE "0:"
    INDEX 01 01:26:45
  TRACK 52 AUDIO
    TITLE "4:cjc173_0431"
    INDEX 01 01:26:67
  TRACK 53 AUDIO
    TITLE "0:"
    INDEX 01 01:29:30
  TRACK 54 AUDIO
    TITLE "5:cjc173_0432"
    INDEX 01 01:29:51
  TRACK 55 AUDIO
    TITLE "0:"
    INDEX 01 01:33:35
  TRACK 56 AUDIO
    TITLE "3:cjc173_0433"
    INDEX 01 01:34:07
  TRACK 57 AUDIO
    TITLE "0:"
    INDEX 01 01:35:32
  TRACK 58 AUDIO
    TITLE "4:cjc173_0434"
    INDEX 01 01:35:56
  TRACK 59 AUDIO
    TITLE "0:"
    INDEX 01 01:38:05
  TRACK 60 AUDIO
    TITLE "5:cjc173_0435"
    INDEX 01 01:38:25
  TRACK 61 AUDIO
    TITLE "0:"
    INDEX 01 01:42:50
  TRACK 62 AUDIO
    TITLE "3:cjc173_0436"
    INDEX 01 01:43:20
  TRACK 63 AUDIO
    TITLE "0:"
    INDEX 01 01:44:47
  TRACK 64 AUDIO
    TITLE "4:cjc173_0437"
    INDEX 01 01:44:67
  TRACK 65 AUDIO
    TITLE "0:"
    INDEX 01 01:47:16
  TRACK 66 AUDIO
    TITLE "5:cjc173_0438"
    INDEX 01 01:47:36
  TRACK 67 AUDIO
    TITLE "0:"
    INDEX 01 01:51:45
  TRACK 68 AUDIO
    TITLE "3:cjc173_0439"
    INDEX 01 01:52:17
  TRACK 69 AUDIO
    TITLE "0:"
    INDEX 01 01:53:73
  TRACK 70 AUDIO
    TITLE "4:cjc173_0440"
    INDEX 01 01:54:20
  TRACK 71 AUDIO
    TITLE "0:"
    INDEX 01 01:59:72
  TRACK 72 AUDIO
    TITLE "5:cjc173_0441"
    INDEX 01 02:00:17
  TRACK 73 AUDIO
    TITLE "0:"
    INDEX 01 02:04:58
  TRACK 74 AUDIO
    TITLE "3:cjc173_0442"
    INDEX 01 02:05:28
  TRACK 75 AUDIO
    TITLE "0:"
    INDEX 01 02:06:72
  TRACK 76 AUDIO
    TITLE "4:cjc173_0443"
    INDEX 01 02:07:19
  TRACK 77 AUDIO
    TITLE "0:"
    INDEX 01 02:13:62
  TRACK 78 AUDIO
    TITLE "5:cjc173_0444"
    INDEX 01 02:14:07
  TRACK 79 AUDIO
    TITLE "0:"
    INDEX 01 02:18:67
  TRACK 80 AUDIO
    TITLE "3:cjc173_0445"
    INDEX 01 02:19:40
  TRACK 81 AUDIO
    TITLE "0:"
    INDEX 01 02:20:74
  TRACK 82 AUDIO
    TITLE "4:cjc173_0446"
    INDEX 01 02:21:19
  TRACK 83 AUDIO
    TITLE "0:"
    INDEX 01 02:24:54
  TRACK 84 AUDIO
    TITLE "5:cjc173_0447"
    INDEX 01 02:24:72
  TRACK 85 AUDIO
    TITLE "0:"
    INDEX 01 02:29:28
